<?xml version="1.0" encoding="UTF-8"?>
<svg id="Calque_2" data-name="Calque 2" xmlns="http://www.w3.org/2000/svg" viewBox="0 0 1101.57 376.98">
  <defs>
    <style>
      .cls-1, .cls-2, .cls-3 {
        stroke-width: 0px;
      }

      .cls-1, .cls-3 {
        fill-rule: evenodd;
      }

      .cls-2, .cls-3 {
        fill: #fff;
      }
    </style>
  </defs>
  <g id="Layer_1" data-name="Layer 1">
    <g>
      <path class="cls-1" d="m38.18,0h1025.2c21.02,0,38.18,17.16,38.18,38.18v300.61c0,21.02-17.16,38.18-38.18,38.18H38.18c-21.02,0-38.18-17.16-38.18-38.18V38.18C0,17.16,17.16,0,38.18,0h0Z"/>
      <path class="cls-2" d="m417.19,260.59h-39.1l-10.01,26.16h-20.1l40.94-103.08h17.26l41.03,103.08h-20.01l-10.01-26.16Zm-19.73-52.14c-3.67,10.74-6.88,19.73-9.73,26.99l-3.49,9.27h26.89l-3.49-9.27c-2.85-7.25-6.15-16.34-9.82-26.99h-.37Zm97.02,16.43c-3.21,0-6.15.83-9.09,2.29-2.85,1.56-5.42,3.58-7.62,6.15v33.23c.73.92,1.65,1.84,2.75,2.66,1.1.92,2.29,1.74,3.58,2.48,1.38.64,2.85,1.28,4.5,1.74,1.56.46,3.3.64,5.05.64,2.85,0,5.32-.55,7.53-1.74,2.2-1.19,4.04-2.94,5.6-5.14,1.38-2.2,2.57-4.86,3.3-7.89.73-3.12,1.19-6.52,1.19-10.28s-.46-7.53-1.19-10.56c-.83-3.03-2.02-5.51-3.4-7.53-1.47-2.02-3.3-3.49-5.32-4.5-2.02-1.1-4.31-1.56-6.88-1.56h0Zm2.48,63.79c-4.04,0-7.71-.73-11.01-2.2-3.21-1.47-5.97-3.3-8.08-5.42h-.37c.09,1.01.09,2.48.18,4.31.09,1.93.09,3.95.09,6.15v31.12h-18.36v-110.61h16.06l.83,8.35h.28c2.29-2.94,5.14-5.42,8.72-7.34s7.71-2.85,12.39-2.85c4.04,0,8.08.73,12.02,2.2,3.95,1.56,7.43,3.86,10.46,6.98,3.03,3.21,5.42,7.16,7.25,11.93,1.84,4.77,2.75,10.46,2.75,16.98,0,6.98-1.01,13.03-2.94,18.08-1.93,5.05-4.5,9.18-7.71,12.48-3.21,3.4-6.79,5.78-10.65,7.43-3.86,1.56-7.89,2.39-11.93,2.39h0Zm84.36-63.79c-3.12,0-6.15.83-9.09,2.29-2.85,1.56-5.42,3.58-7.62,6.15v33.23c.73.92,1.65,1.84,2.75,2.66,1.1.92,2.29,1.74,3.67,2.48,1.29.64,2.75,1.28,4.41,1.74,1.56.46,3.3.64,5.05.64,2.85,0,5.32-.55,7.53-1.74,2.2-1.19,4.13-2.94,5.6-5.14,1.38-2.2,2.57-4.86,3.3-7.89.73-3.12,1.19-6.52,1.19-10.28s-.46-7.53-1.19-10.56c-.83-3.03-2.02-5.51-3.4-7.53-1.47-2.02-3.3-3.49-5.32-4.5-2.02-1.1-4.31-1.56-6.88-1.56h0Zm2.48,63.79c-4.04,0-7.71-.73-11.01-2.2-3.21-1.47-5.97-3.3-8.08-5.42h-.37c.09,1.01.09,2.48.18,4.31.09,1.93.09,3.95.09,6.15v31.12h-18.36v-110.61h16.06l.83,8.35h.28c2.29-2.94,5.14-5.42,8.72-7.34s7.71-2.85,12.39-2.85c4.04,0,8.08.73,12.02,2.2,3.95,1.56,7.43,3.86,10.46,6.98,3.03,3.21,5.42,7.16,7.25,11.93,1.84,4.77,2.75,10.46,2.75,16.98,0,6.98-1.01,13.03-2.94,18.08-1.93,5.05-4.5,9.18-7.71,12.48-3.21,3.4-6.7,5.78-10.65,7.43-3.86,1.56-7.89,2.39-11.93,2.39h0Zm131.08-31.58c0-2.57-.64-4.77-1.93-6.33-1.28-1.65-3.03-2.94-5.23-3.95-2.2-1.1-4.68-1.93-7.44-2.57-2.75-.64-5.6-1.29-8.63-1.84-4.04-.92-7.8-1.93-11.47-3.12-3.67-1.29-6.88-2.94-9.64-5.05-2.75-2.11-4.96-4.86-6.61-8.17-1.65-3.3-2.48-7.34-2.48-12.3,0-5.51,1.01-10.19,2.94-14.23,1.84-4.04,4.5-7.44,7.71-10.1,3.3-2.57,7.16-4.59,11.57-5.87,4.41-1.38,9.36-2.02,14.87-2.02s11.01.55,16.52,1.65c5.6,1.01,10.37,2.48,14.41,4.13v16.16c-5.42-2.11-10.56-3.58-15.42-4.59-4.96-.92-9.55-1.38-13.86-1.38-6.24,0-11.01,1.1-14.41,3.4-3.3,2.29-5.05,5.69-5.05,10.19,0,2.66.55,4.77,1.65,6.52,1.1,1.65,2.66,3.03,4.5,4.13,1.93,1.1,4.13,2.02,6.61,2.75,2.39.64,5.05,1.19,7.8,1.84,4.31.92,8.54,2.02,12.48,3.21,3.95,1.19,7.44,2.85,10.56,4.96,3.03,2.2,5.51,5.05,7.25,8.54,1.84,3.4,2.75,7.89,2.75,13.31s-1.1,10.37-3.12,14.41c-2.02,4.04-4.96,7.43-8.72,10.1-3.76,2.57-8.35,4.59-13.77,5.87-5.42,1.28-11.29,1.93-17.72,1.93-5.6,0-11.2-.55-16.61-1.65-5.42-1.1-9.91-2.66-13.49-4.68v-15.97c5.05,2.2,10.01,3.86,14.87,4.86,4.86,1.01,9.82,1.47,14.96,1.47,2.94,0,5.97-.28,8.81-.73s5.42-1.28,7.71-2.48c2.29-1.19,4.13-2.85,5.51-4.86,1.47-2.02,2.11-4.5,2.11-7.53h0Zm83.8,29.56c-2.02.64-4.5,1.1-7.34,1.47-2.85.37-5.51.55-7.99.55-6.24,0-11.38-1.01-15.42-3.03-3.95-2.11-6.79-4.96-8.44-8.81-1.19-2.75-1.74-6.43-1.74-11.11v-38.64h-13.95v-15.05h13.95v-20.84h18.27v20.84h21.57v15.05h-21.57v36.26c0,2.94.46,5.05,1.29,6.43,1.56,2.39,4.68,3.58,9.18,3.58,2.11,0,4.22-.18,6.33-.55,2.02-.28,4.04-.73,5.87-1.19v15.05Zm66.64-37.27c0-3.95-.46-7.43-1.38-10.46-.92-3.03-2.2-5.51-3.86-7.62-1.65-2.02-3.67-3.58-5.97-4.59-2.29-1.01-4.86-1.56-7.53-1.56s-5.14.55-7.43,1.56-4.22,2.57-5.87,4.59c-1.65,2.11-2.94,4.59-3.86,7.62-.92,3.03-1.38,6.52-1.38,10.46s.46,7.43,1.38,10.46c.92,3.03,2.2,5.6,3.86,7.62,1.65,2.02,3.67,3.58,5.97,4.59,2.29,1.1,4.77,1.56,7.53,1.56s5.14-.46,7.43-1.56c2.29-1.01,4.22-2.57,5.87-4.59,1.65-2.02,2.94-4.59,3.86-7.62.92-3.03,1.38-6.52,1.38-10.46h0Zm18.91,0c0,5.87-.83,11.2-2.57,16.06-1.74,4.86-4.31,9-7.53,12.39-3.3,3.49-7.25,6.15-11.84,7.99-4.68,1.84-9.82,2.85-15.51,2.85s-11.2-1.01-15.79-2.85c-4.68-1.84-8.63-4.5-11.84-7.99-3.3-3.4-5.78-7.53-7.53-12.39-1.65-4.86-2.57-10.19-2.57-16.06s.92-11.2,2.66-15.97c1.74-4.86,4.22-9,7.53-12.48,3.3-3.4,7.25-6.06,11.84-7.99,4.68-1.84,9.82-2.75,15.51-2.75s11.11.92,15.79,2.75c4.68,1.93,8.63,4.59,11.84,7.99,3.21,3.49,5.69,7.62,7.43,12.48,1.74,4.77,2.57,10.1,2.57,15.97h0Zm60.58-22.76h-1.56c-5.6,0-10.56.83-14.78,2.48-4.22,1.65-7.53,4.13-9.82,7.62v50.03h-18.36v-74.72h15.15l1.74,10.37h.28c2.2-3.76,5.14-6.79,8.9-9,3.76-2.11,8.35-3.21,13.68-3.21,1.84,0,3.4.09,4.77.28v16.16Zm49.38,47.36c3.49,0,7.25-.37,11.11-1.1,3.86-.64,7.71-1.74,11.66-3.03v14.5c-2.29,1.01-5.97,2.02-10.83,2.94-4.86.92-10.01,1.38-15.24,1.38s-10.28-.73-15.05-2.11c-4.77-1.29-8.9-3.49-12.48-6.52-3.58-3.03-6.33-6.98-8.44-11.84-2.11-4.86-3.12-10.65-3.12-17.53s.92-12.76,2.94-17.81c1.93-5.14,4.59-9.36,7.8-12.67,3.3-3.4,7.07-5.87,11.38-7.53,4.22-1.65,8.63-2.48,13.13-2.48,4.77,0,9.09.64,13.13,2.11,3.95,1.47,7.43,3.67,10.37,6.79,2.85,3.03,5.14,6.98,6.79,11.84,1.56,4.86,2.39,10.56,2.39,17.26,0,2.57-.09,4.68-.18,6.52h-49.02c.28,3.49,1.01,6.43,2.29,8.9,1.28,2.39,2.94,4.41,5.05,5.97,2.11,1.56,4.5,2.66,7.25,3.3,2.85.73,5.78,1.1,9.09,1.1h0Zm-7.34-49.57c-2.29,0-4.41.37-6.24,1.19-1.74.92-3.3,2.02-4.59,3.49-1.38,1.47-2.39,3.21-3.12,5.14-.83,1.93-1.29,4.04-1.56,6.24h29.37c0-2.2-.28-4.31-.92-6.24-.55-1.93-1.47-3.67-2.57-5.14-1.19-1.47-2.66-2.57-4.31-3.49-1.74-.83-3.76-1.19-6.06-1.19h0Z"/>
      <path class="cls-2" d="m352.66,138.6v-57.46h18.27c5.42,0,10.19,1.1,14.41,3.21,4.31,2.2,7.62,5.23,10.01,9.18,2.39,4.04,3.58,8.63,3.58,13.68v5.32c0,5.05-1.19,9.64-3.58,13.58-2.39,4.04-5.69,7.07-10.01,9.18-4.22,2.2-9.18,3.3-14.78,3.3h-17.9Zm5.6-53.33v49.2h12.39c6.88,0,12.39-2.02,16.52-6.06,4.13-3.95,6.24-9.45,6.24-16.25v-5.05c0-6.61-2.02-11.84-6.15-15.88-4.13-3.95-9.55-5.97-16.25-5.97h-12.76Zm50.48,31.3c0-4.04.83-7.71,2.66-11.01,1.84-3.3,4.41-5.87,7.71-7.71,3.3-1.84,7.07-2.75,11.2-2.75,6.52,0,11.75,2.02,15.79,5.97,3.95,4.04,5.97,9.27,5.97,15.88v1.01c0,4.13-.92,7.8-2.75,11.11-1.74,3.3-4.31,5.87-7.62,7.62-3.3,1.84-7.07,2.66-11.29,2.66-6.43,0-11.66-1.93-15.7-5.97-4.04-3.95-5.97-9.27-5.97-15.79v-1.01Zm5.32,1.38c0,5.05,1.47,9.27,4.5,12.58,3.03,3.21,6.98,4.86,11.84,4.86s8.81-1.65,11.84-4.86c3.03-3.3,4.5-7.62,4.5-12.94v-.92c0-3.3-.73-6.24-2.11-9-1.38-2.66-3.3-4.77-5.78-6.24-2.48-1.56-5.32-2.29-8.54-2.29-4.77,0-8.72,1.65-11.66,4.96-3.03,3.3-4.59,7.62-4.59,12.94v.92Zm60.76,10.83l.83,3.67,1.01-3.86,11.66-32.68h4.59l11.57,32.4,1.29,4.5,1.01-4.22,10.01-32.68h5.51l-14.14,42.68h-4.59l-12.48-33.87-.55-2.29-.55,2.39-12.3,33.78h-4.59l-14.14-42.68h5.6l10.28,32.86Zm62.78-32.86l.18,7.25c1.84-2.57,4.13-4.59,6.79-5.97,2.75-1.38,5.78-2.11,9.09-2.11,5.14,0,9.09,1.29,11.57,3.86,2.57,2.57,3.86,6.52,3.86,11.66v28h-5.32v-28.09c0-3.76-.92-6.61-2.75-8.44-1.84-1.93-4.68-2.85-8.72-2.85-3.3,0-6.24.92-8.81,2.75-2.57,1.84-4.41,4.31-5.69,7.34v29.28h-5.32v-42.68h5.14Zm51.4,42.68h-5.32v-60.58h5.32v60.58Zm11.66-22.03c0-4.04.92-7.71,2.75-11.01,1.74-3.3,4.31-5.87,7.62-7.71,3.4-1.84,7.07-2.75,11.29-2.75,6.43,0,11.66,2.02,15.7,5.97,4.04,4.04,6.06,9.27,6.06,15.88v1.01c0,4.13-.92,7.8-2.75,11.11-1.84,3.3-4.31,5.87-7.62,7.62-3.3,1.84-7.07,2.66-11.29,2.66-6.43,0-11.66-1.93-15.7-5.97-4.04-3.95-6.06-9.27-6.06-15.79v-1.01Zm5.42,1.38c0,5.05,1.47,9.27,4.5,12.58,3.03,3.21,6.98,4.86,11.84,4.86s8.81-1.65,11.75-4.86c3.03-3.3,4.59-7.62,4.59-12.94v-.92c0-3.3-.73-6.24-2.11-9-1.38-2.66-3.3-4.77-5.78-6.24-2.48-1.56-5.32-2.29-8.54-2.29-4.77,0-8.72,1.65-11.75,4.96-3.03,3.3-4.5,7.62-4.5,12.94v.92Zm79.77,20.65c-.55-1.38-.92-3.4-1.01-5.97-1.93,2.11-4.31,3.76-7.25,4.96s-5.97,1.74-9.27,1.74c-4.68,0-8.44-1.1-11.29-3.4-2.94-2.29-4.41-5.14-4.41-8.72,0-4.13,2.02-7.43,5.97-9.82,3.95-2.39,9.36-3.58,16.43-3.58h9.73v-4.86c0-3.12-1.01-5.51-3.21-7.25-2.11-1.74-5.23-2.66-9.36-2.66-3.76,0-6.79.92-9.27,2.57-2.48,1.65-3.67,3.67-3.67,6.06l-5.42-.09c0-3.4,1.84-6.24,5.42-8.72,3.58-2.48,7.99-3.76,13.22-3.76s9.73,1.19,12.85,3.58c3.12,2.39,4.77,5.69,4.77,10.01v20.1c0,4.13.55,7.25,1.56,9.27v.55h-5.78Zm-16.89-3.3c3.58,0,6.79-.83,9.64-2.39,2.85-1.47,4.86-3.49,6.15-6.06v-9.45h-9.55c-5.42.09-9.55.92-12.67,2.57-2.94,1.74-4.5,4.04-4.5,6.98,0,2.39,1.01,4.31,3.03,5.97,2.02,1.56,4.68,2.39,7.89,2.39h0Zm33.32-18.45c0-6.61,1.65-11.93,5.05-15.79,3.4-3.95,7.99-5.97,13.77-5.97,6.52,0,11.57,2.29,14.96,6.88v-23.96h5.32v60.58h-5.05l-.18-5.69c-3.4,4.31-8.54,6.43-15.15,6.43-5.6,0-10.19-1.93-13.58-5.87-3.4-3.95-5.14-9.36-5.14-16.06v-.55Zm5.42.83c0,5.42,1.28,9.73,3.76,12.85,2.48,3.12,5.97,4.77,10.46,4.77,6.61,0,11.38-2.57,14.14-7.71v-20.01c-2.75-5.6-7.43-8.35-14.04-8.35-4.5,0-7.99,1.56-10.56,4.68-2.48,3.12-3.76,7.71-3.76,13.77h0Zm67.28-1.1c0-4.04.92-7.71,2.66-11.01,1.84-3.3,4.41-5.87,7.71-7.71,3.3-1.84,7.07-2.75,11.2-2.75,6.52,0,11.75,2.02,15.79,5.97,3.95,4.04,5.97,9.27,5.97,15.88v1.01c0,4.13-.92,7.8-2.66,11.11-1.84,3.3-4.41,5.87-7.71,7.62-3.3,1.84-7.07,2.66-11.2,2.66-6.52,0-11.75-1.93-15.79-5.97s-5.97-9.27-5.97-15.79v-1.01Zm5.32,1.38c0,5.05,1.56,9.27,4.59,12.58,2.94,3.21,6.88,4.86,11.84,4.86s8.72-1.65,11.75-4.86c3.03-3.3,4.5-7.62,4.5-12.94v-.92c0-3.3-.64-6.24-2.11-9-1.38-2.66-3.3-4.77-5.78-6.24-2.48-1.56-5.32-2.29-8.54-2.29-4.77,0-8.63,1.65-11.66,4.96-3.03,3.3-4.59,7.62-4.59,12.94v.92Zm54.25-22.03l.18,7.25c1.84-2.57,4.04-4.59,6.79-5.97,2.75-1.38,5.69-2.11,9-2.11,5.23,0,9.09,1.29,11.66,3.86s3.86,6.52,3.86,11.66v28h-5.32v-28.09c0-3.76-.92-6.61-2.75-8.44-1.84-1.93-4.68-2.85-8.72-2.85-3.3,0-6.24.92-8.81,2.75s-4.41,4.31-5.69,7.34v29.28h-5.32v-42.68h5.14Zm76.09-10.92v10.92h10.1v3.86h-10.1v28.45c0,2.39.46,4.13,1.47,5.32,1.01,1.1,2.57,1.74,4.86,1.74.92,0,2.39-.18,4.41-.46l.18,3.86c-1.38.46-3.3.64-5.78.64-3.67,0-6.33-.92-7.99-2.75-1.65-1.93-2.57-4.68-2.57-8.35v-28.45h-8.9v-3.86h8.9v-10.92h5.42Zm26.62,18.17c1.74-2.57,3.95-4.59,6.79-5.97,2.66-1.38,5.69-2.11,9-2.11,5.23,0,9.09,1.29,11.57,3.86,2.57,2.57,3.86,6.52,3.95,11.66v28h-5.42v-28.09c0-3.76-.92-6.61-2.75-8.44-1.74-1.93-4.68-2.85-8.63-2.85-3.4,0-6.33.92-8.9,2.75-2.48,1.84-4.41,4.31-5.6,7.34v29.28h-5.42v-60.58h5.42v25.15Zm63.89,36.17c-4.13,0-7.8-.83-11.2-2.66-3.3-1.74-5.87-4.22-7.71-7.43-1.93-3.21-2.85-6.79-2.85-10.74v-1.74c0-4.04.92-7.8,2.75-11.11,1.74-3.21,4.31-5.78,7.53-7.71,3.21-1.84,6.79-2.85,10.56-2.85,5.87,0,10.56,1.84,14.04,5.32,3.4,3.58,5.14,8.35,5.14,14.5v2.66h-34.7v.92c0,4.86,1.65,8.81,4.77,12.12,3.12,3.21,7.16,4.77,11.93,4.77,2.85,0,5.42-.46,7.62-1.38,2.2-.92,4.22-2.39,5.97-4.41l3.4,2.2c-3.95,5.05-9.73,7.53-17.26,7.53h0Zm-.92-40.2c-4.04,0-7.44,1.38-10.28,3.95-2.75,2.57-4.41,6.06-5.05,10.46h29.19v-.55c-.18-4.04-1.47-7.43-4.04-10.01-2.48-2.57-5.78-3.86-9.82-3.86h0Z"/>
      <path class="cls-3" d="m183.03,120.06c32.49,1.1,52.41-23.13,53.05-55.62-34.6,0-55.9,17.72-53.05,55.62h0Zm104.37,123.82c-14.41-13.31-30.93-17.16-31.85-48.56-.46-16.8,4.13-25.7,9.64-32.4,5.6-6.7,12.02-11.29,15.05-19.46-38.55-47.91-78.02-9-101.8-14.5-6.24-1.47-11.11-3.95-16.89-6.06-6.88-2.57-13.31-3.03-20.65-2.57-72.7,4.86-76.09,111.43-20.38,176.24,26.71,30.93,36.81,7.71,65.91,5.97,28.27-1.74,42.5,24.14,69.49-2.02,9.73-9.36,28.45-37.73,31.48-56.63h0Z"/>
    </g>
  </g>
</svg>