<?xml version="1.0" encoding="UTF-8"?>
<svg viewBox="0 0 218 218" xmlns="http://www.w3.org/2000/svg">
 <g transform="matrix(1.0561 0 0 1.0561 5.5 5.5)" fill="#f00">
  <path d="m98 0c-54.096 0-98 43.904-98 98s43.904 98 98 98 98-43.904 98-98-43.904-98-98-98zm0 20c43.056 0 78 34.944 78 78s-34.944 78-78 78-78-34.944-78-78 34.944-78 78-78z"/>
  <path d="m97.456 43.506c-30.36 0-55 24.64-55 55s24.64 55 55 55c26.242 0 48.211-18.399 53.688-43h-26.188c-4.6313 10.594-15.204 18-27.5 18-16.56 0-30-13.44-30-30s13.44-30 30-30c11.902 0 22.184 6.9456 27.031 17h26.406c-5.8444-24.094-27.554-42-53.438-42z"/>
 </g>
</svg>
