<?xml version="1.0" encoding="UTF-8"?>
<svg id="Calque_2" data-name="Calque 2" xmlns="http://www.w3.org/2000/svg" xmlns:xlink="http://www.w3.org/1999/xlink" viewBox="0 0 1188 406.5">
  <defs>
    <style>
      .cls-1 {
        fill: url(#linear-gradient-3);
      }

      .cls-1, .cls-2, .cls-3, .cls-4, .cls-5, .cls-6 {
        stroke-width: 0px;
      }

      .cls-1, .cls-4, .cls-5, .cls-6 {
        fill-rule: evenodd;
      }

      .cls-3 {
        fill: #fff;
      }

      .cls-4 {
        fill: url(#linear-gradient);
      }

      .cls-5 {
        fill: url(#linear-gradient-2);
      }

      .cls-6 {
        fill: url(#linear-gradient-4);
      }
    </style>
    <linearGradient id="linear-gradient" x1="3793.19" y1="1496.03" x2="3641.85" y2="1574.15" gradientTransform="translate(-4801.53 -3756.24) scale(1.32 2.56)" gradientUnits="userSpaceOnUse">
      <stop offset="0" stop-color="#00a0ff"/>
      <stop offset="0" stop-color="#00a1ff"/>
      <stop offset=".26" stop-color="#00beff"/>
      <stop offset=".51" stop-color="#00d2ff"/>
      <stop offset=".76" stop-color="#00dfff"/>
      <stop offset="1" stop-color="#00e3ff"/>
    </linearGradient>
    <linearGradient id="linear-gradient-2" x1="4121.78" y1="3157.62" x2="3846.19" y2="3157.62" gradientTransform="translate(-3926.82 -2553.96) scale(1.04 .87)" gradientUnits="userSpaceOnUse">
      <stop offset="0" stop-color="#ffe000"/>
      <stop offset=".41" stop-color="#ffbd00"/>
      <stop offset=".78" stop-color="orange"/>
      <stop offset="1" stop-color="#ff9c00"/>
    </linearGradient>
    <linearGradient id="linear-gradient-3" x1="3655.11" y1="2360.07" x2="3493.48" y2="2569.75" gradientTransform="translate(-5984.56 -2867.56) scale(1.7 1.31)" gradientUnits="userSpaceOnUse">
      <stop offset="0" stop-color="#ff3a44"/>
      <stop offset="1" stop-color="#c31162"/>
    </linearGradient>
    <linearGradient id="linear-gradient-4" x1="3530.63" y1="2158.31" x2="3602.8" y2="2251.99" gradientTransform="translate(-5984.56 -2868.54) scale(1.7 1.31)" gradientUnits="userSpaceOnUse">
      <stop offset="0" stop-color="#32a071"/>
      <stop offset=".07" stop-color="#2da771"/>
      <stop offset=".48" stop-color="#15cf74"/>
      <stop offset=".8" stop-color="#06e775"/>
      <stop offset="1" stop-color="#00f076"/>
    </linearGradient>
  </defs>
  <g id="Layer_1" data-name="Layer 1">
    <g>
      <rect class="cls-2" width="1188" height="406.5" rx="41.13" ry="41.13"/>
      <g>
        <path class="cls-3" d="m459.53,311.91c-2.83,3.39-6.83,6.02-12.01,7.89-5.17,1.87-10.91,2.81-17.2,2.81-6.61,0-12.4-1.44-17.38-4.33-4.98-2.88-8.83-7.07-11.53-12.56-2.71-5.49-4.1-11.94-4.17-19.35v-5.19c0-7.62,1.28-14.22,3.85-19.79,2.57-5.57,6.27-9.84,11.12-12.79,4.84-2.95,10.51-4.43,17.01-4.43,9.05,0,16.13,2.16,21.23,6.47,5.1,4.32,8.13,10.6,9.07,18.85h-15.31c-.7-4.37-2.25-7.57-4.64-9.59-2.39-2.03-5.69-3.04-9.88-3.04-5.35,0-9.42,2.01-12.22,6.03-2.8,4.02-4.21,10-4.25,17.93v4.88c0,8,1.52,14.05,4.56,18.14,3.04,4.09,7.5,6.13,13.37,6.13s10.12-1.26,12.64-3.78v-13.16h-14.31v-11.59h30.04v30.46Z"/>
        <path class="cls-3" d="m468.91,292.66c0-5.63,1.08-10.64,3.25-15.05,2.17-4.4,5.29-7.81,9.36-10.22,4.07-2.41,8.8-3.62,14.18-3.62,7.65,0,13.9,2.34,18.74,7.03,4.84,4.68,7.54,11.05,8.1,19.08l.1,3.88c0,8.7-2.43,15.69-7.29,20.95-4.86,5.26-11.38,7.89-19.56,7.89s-14.71-2.62-19.58-7.86c-4.88-5.24-7.31-12.37-7.31-21.39v-.68Zm15.15,1.08c0,5.39,1.01,9.51,3.04,12.37,2.03,2.85,4.93,4.28,8.7,4.28s6.54-1.41,8.6-4.23c2.06-2.82,3.09-7.32,3.09-13.52,0-5.29-1.03-9.38-3.09-12.29-2.06-2.9-4.96-4.36-8.7-4.36s-6.57,1.44-8.6,4.33c-2.03,2.89-3.04,7.36-3.04,13.42Z"/>
        <path class="cls-3" d="m529.63,292.66c0-5.63,1.08-10.64,3.25-15.05,2.17-4.4,5.29-7.81,9.36-10.22,4.07-2.41,8.8-3.62,14.18-3.62,7.65,0,13.9,2.34,18.74,7.03,4.84,4.68,7.54,11.05,8.1,19.08l.1,3.88c0,8.7-2.43,15.69-7.29,20.95-4.86,5.26-11.38,7.89-19.56,7.89s-14.71-2.62-19.58-7.86c-4.88-5.24-7.31-12.37-7.31-21.39v-.68Zm15.15,1.08c0,5.39,1.01,9.51,3.04,12.37,2.03,2.85,4.93,4.28,8.7,4.28s6.54-1.41,8.6-4.23c2.06-2.82,3.09-7.32,3.09-13.52,0-5.29-1.03-9.38-3.09-12.29-2.06-2.9-4.96-4.36-8.7-4.36s-6.57,1.44-8.6,4.33c-2.03,2.89-3.04,7.36-3.04,13.42Z"/>
        <path class="cls-3" d="m590.5,292.77c0-8.7,2.07-15.71,6.21-21.02,4.14-5.31,9.73-7.97,16.75-7.97,6.22,0,11.06,2.13,14.52,6.4l.63-5.35h13.74v54.84c0,4.96-1.13,9.28-3.38,12.95-2.25,3.67-5.43,6.47-9.52,8.39-4.09,1.92-8.88,2.88-14.37,2.88-4.16,0-8.21-.83-12.16-2.49-3.95-1.66-6.94-3.8-8.97-6.42l6.71-9.23c3.78,4.23,8.35,6.34,13.74,6.34,4.02,0,7.15-1.07,9.38-3.22,2.24-2.15,3.36-5.2,3.36-9.15v-3.04c-3.5,3.95-8.09,5.92-13.79,5.92-6.82,0-12.33-2.66-16.54-8-4.21-5.33-6.32-12.4-6.32-21.21v-.63Zm15.15,1.13c0,5.15,1.03,9.18,3.09,12.1,2.06,2.92,4.89,4.38,8.49,4.38,4.61,0,7.92-1.73,9.91-5.2v-23.89c-2.03-3.47-5.3-5.2-9.8-5.2-3.64,0-6.49,1.49-8.57,4.46-2.08,2.98-3.12,7.42-3.12,13.34Z"/>
        <path class="cls-3" d="m669.98,321.55h-15.2v-80.53h15.2v80.53Z"/>
        <path class="cls-3" d="m708.57,322.6c-8.32,0-15.09-2.55-20.32-7.65-5.23-5.1-7.84-11.9-7.84-20.4v-1.47c0-5.7,1.1-10.79,3.3-15.28,2.2-4.49,5.32-7.95,9.36-10.38,4.04-2.43,8.64-3.64,13.81-3.64,7.76,0,13.87,2.45,18.32,7.34,4.46,4.89,6.68,11.83,6.68,20.81v6.19h-36.12c.49,3.7,1.97,6.68,4.43,8.91,2.46,2.24,5.58,3.36,9.36,3.36,5.84,0,10.4-2.11,13.68-6.34l7.45,8.34c-2.27,3.22-5.35,5.72-9.23,7.52-3.88,1.8-8.18,2.7-12.9,2.7Zm-1.73-46.61c-3.01,0-5.44,1.02-7.31,3.05-1.87,2.04-3.07,4.95-3.59,8.74h21.08v-1.21c-.07-3.37-.98-5.98-2.73-7.82-1.75-1.84-4.23-2.76-7.45-2.76Z"/>
        <path class="cls-3" d="m783.96,294.66v26.9h-15.73v-76.34h29.78c5.73,0,10.77,1.05,15.13,3.15,4.35,2.1,7.7,5.08,10.04,8.94,2.34,3.86,3.51,8.26,3.51,13.19,0,7.48-2.56,13.38-7.68,17.7-5.12,4.32-12.21,6.47-21.26,6.47h-13.79Zm0-12.74h14.05c4.16,0,7.33-.98,9.52-2.94,2.18-1.96,3.28-4.75,3.28-8.39s-1.1-6.76-3.3-9.07c-2.2-2.31-5.24-3.49-9.12-3.57h-14.42v23.96Z"/>
        <path class="cls-3" d="m852.49,321.55h-15.2v-80.53h15.2v80.53Z"/>
        <path class="cls-3" d="m897.84,321.55c-.7-1.36-1.21-3.06-1.52-5.09-3.67,4.09-8.44,6.13-14.31,6.13-5.56,0-10.16-1.61-13.82-4.82-3.65-3.22-5.48-7.27-5.48-12.16,0-6.01,2.23-10.63,6.68-13.84,4.46-3.22,10.9-4.84,19.32-4.88h6.97v-3.25c0-2.62-.67-4.72-2.02-6.29-1.35-1.57-3.47-2.36-6.37-2.36-2.55,0-4.55.61-6,1.84-1.45,1.22-2.18,2.9-2.18,5.03h-15.15c0-3.29,1.01-6.33,3.04-9.12,2.03-2.8,4.89-4.99,8.6-6.58,3.7-1.59,7.86-2.39,12.48-2.39,6.99,0,12.54,1.76,16.65,5.27,4.11,3.51,6.16,8.45,6.16,14.81v24.59c.03,5.38.79,9.46,2.25,12.22v.89h-15.31Zm-12.53-10.54c2.24,0,4.3-.5,6.19-1.49,1.89-1,3.29-2.33,4.19-4.01v-9.75h-5.66c-7.59,0-11.62,2.62-12.11,7.86l-.05.89c0,1.89.66,3.44,1.99,4.67,1.33,1.22,3.15,1.84,5.45,1.84Z"/>
        <path class="cls-3" d="m942.93,300.11l10.49-35.29h16.25l-22.81,65.54-1.26,2.99c-3.39,7.41-8.98,11.11-16.78,11.11-2.2,0-4.44-.33-6.71-1v-11.48l2.31.05c2.87,0,5.01-.44,6.42-1.31,1.42-.87,2.52-2.32,3.33-4.35l1.78-4.67-19.87-56.89h16.31l10.54,35.29Z"/>
      </g>
      <g>
        <path class="cls-3" d="m438.32,156.84h-31.31l-7.1,19.37h-6.11l26.1-68.96h5.54l26.1,68.96h-6.06l-7.15-19.37Zm-29.51-4.93h27.66l-13.83-37.56-13.83,37.56Z"/>
        <path class="cls-3" d="m473.94,168.39l15.58-43.43h5.83l-19.14,51.25h-4.59l-19.23-51.25h5.83l15.72,43.43Z"/>
        <path class="cls-3" d="m536.27,176.21c-.57-1.61-.93-3.99-1.09-7.15-1.99,2.59-4.52,4.59-7.6,5.99-3.08,1.4-6.34,2.11-9.78,2.11-4.93,0-8.91-1.37-11.96-4.12-3.05-2.75-4.57-6.22-4.57-10.42,0-4.99,2.08-8.94,6.23-11.84,4.15-2.9,9.94-4.36,17.36-4.36h10.28v-5.83c0-3.66-1.13-6.54-3.39-8.64-2.26-2.1-5.55-3.15-9.88-3.15-3.95,0-7.22,1.01-9.8,3.03-2.59,2.02-3.88,4.45-3.88,7.29l-5.68-.05c0-4.07,1.89-7.6,5.68-10.59,3.79-2.98,8.45-4.48,13.97-4.48s10.22,1.43,13.52,4.29c3.3,2.86,5,6.84,5.09,11.96v24.25c0,4.96.52,8.67,1.56,11.13v.57h-6.06Zm-17.81-4.07c3.79,0,7.18-.92,10.16-2.75,2.98-1.83,5.15-4.28,6.51-7.34v-11.27h-10.14c-5.65.06-10.07,1.1-13.26,3.1-3.19,2.01-4.78,4.76-4.78,8.27,0,2.87,1.07,5.26,3.2,7.15,2.13,1.89,4.9,2.84,8.31,2.84Z"/>
        <path class="cls-3" d="m555.55,110.16c0-1.07.35-1.97,1.04-2.71.69-.74,1.64-1.11,2.84-1.11s2.16.37,2.87,1.11c.71.74,1.07,1.64,1.07,2.71s-.36,1.96-1.07,2.68c-.71.72-1.67,1.08-2.87,1.08s-2.15-.36-2.84-1.08c-.7-.72-1.04-1.62-1.04-2.68Zm6.68,66.05h-5.68v-51.25h5.68v51.25Z"/>
        <path class="cls-3" d="m583.97,176.21h-5.68v-72.75h5.68v72.75Z"/>
        <path class="cls-3" d="m631.71,176.21c-.57-1.61-.93-3.99-1.09-7.15-1.99,2.59-4.52,4.59-7.6,5.99-3.08,1.4-6.34,2.11-9.78,2.11-4.93,0-8.91-1.37-11.96-4.12-3.05-2.75-4.57-6.22-4.57-10.42,0-4.99,2.08-8.94,6.23-11.84,4.15-2.9,9.94-4.36,17.36-4.36h10.28v-5.83c0-3.66-1.13-6.54-3.39-8.64-2.26-2.1-5.55-3.15-9.88-3.15-3.95,0-7.22,1.01-9.8,3.03-2.59,2.02-3.88,4.45-3.88,7.29l-5.68-.05c0-4.07,1.9-7.6,5.68-10.59,3.79-2.98,8.45-4.48,13.97-4.48s10.22,1.43,13.52,4.29c3.3,2.86,5,6.84,5.09,11.96v24.25c0,4.96.52,8.67,1.56,11.13v.57h-6.06Zm-17.81-4.07c3.79,0,7.18-.92,10.16-2.75,2.98-1.83,5.15-4.28,6.51-7.34v-11.27h-10.14c-5.65.06-10.07,1.1-13.26,3.1-3.19,2.01-4.78,4.76-4.78,8.27,0,2.87,1.07,5.26,3.2,7.15,2.13,1.89,4.9,2.84,8.31,2.84Z"/>
        <path class="cls-3" d="m692.58,151.1c0,7.99-1.77,14.33-5.3,19.02-3.54,4.69-8.29,7.03-14.26,7.03-7.14,0-12.54-2.65-16.2-7.96l-.24,7.01h-5.3v-72.75h5.64v28.94c3.6-5.59,8.94-8.38,16.01-8.38,6.06,0,10.85,2.31,14.38,6.94,3.52,4.63,5.28,11.06,5.28,19.3v.85Zm-5.68-.99c0-6.76-1.31-11.98-3.93-15.65-2.62-3.68-6.32-5.52-11.08-5.52-3.63,0-6.71.89-9.24,2.68-2.53,1.78-4.44,4.4-5.73,7.84v23.11c2.84,6.44,7.86,9.66,15.06,9.66,4.67,0,8.33-1.85,10.96-5.54,2.64-3.69,3.95-9.22,3.95-16.58Z"/>
        <path class="cls-3" d="m711.43,176.21h-5.68v-72.75h5.68v72.75Z"/>
        <path class="cls-3" d="m746.67,177.16c-4.36,0-8.3-1.07-11.82-3.22-3.52-2.15-6.26-5.14-8.22-8.98-1.96-3.84-2.94-8.14-2.94-12.91v-2.04c0-4.93.95-9.36,2.87-13.31,1.91-3.95,4.57-7.05,7.98-9.31,3.41-2.26,7.1-3.39,11.08-3.39,6.22,0,11.15,2.12,14.8,6.37,3.65,4.25,5.47,10.05,5.47,17.41v3.17h-36.57v1.09c0,5.81,1.67,10.65,5,14.52,3.33,3.87,7.52,5.8,12.58,5.8,3.03,0,5.71-.55,8.03-1.66,2.32-1.1,4.43-2.87,6.32-5.3l3.55,2.7c-4.17,6.03-10.22,9.05-18.14,9.05Zm-1.04-48.31c-4.26,0-7.86,1.56-10.78,4.69-2.92,3.13-4.7,7.33-5.33,12.6h30.74v-.62c-.16-4.93-1.56-8.94-4.22-12.03-2.65-3.09-6.13-4.64-10.42-4.64Z"/>
        <path class="cls-3" d="m797.4,149.83c0-4.93.95-9.36,2.87-13.31,1.91-3.95,4.61-7.02,8.1-9.21,3.49-2.19,7.44-3.29,11.87-3.29,6.82,0,12.35,2.39,16.58,7.18,4.23,4.78,6.35,11.12,6.35,19.02v1.18c0,4.96-.96,9.42-2.87,13.38-1.91,3.96-4.6,7.02-8.08,9.17-3.47,2.15-7.44,3.22-11.89,3.22-6.79,0-12.31-2.39-16.55-7.18-4.25-4.78-6.37-11.12-6.37-19.02v-1.14Zm5.68,1.56c0,6.13,1.59,11.16,4.76,15.09,3.17,3.93,7.33,5.9,12.48,5.9s9.26-1.97,12.43-5.9c3.17-3.93,4.76-9.12,4.76-15.56v-1.09c0-3.91-.73-7.5-2.18-10.75-1.45-3.25-3.49-5.77-6.11-7.56-2.62-1.78-5.62-2.68-9-2.68-5.05,0-9.17,1.98-12.36,5.94-3.19,3.96-4.78,9.15-4.78,15.56v1.04Z"/>
        <path class="cls-3" d="m860.25,124.96l.19,8.76c1.93-3.16,4.33-5.57,7.2-7.22,2.87-1.66,6.05-2.49,9.52-2.49,5.49,0,9.58,1.55,12.27,4.64,2.68,3.1,4.04,7.74,4.07,13.93v33.63h-5.64v-33.68c-.03-4.58-1-7.99-2.91-10.23-1.91-2.24-4.97-3.36-9.16-3.36-3.5,0-6.61,1.1-9.31,3.29-2.7,2.19-4.7,5.15-5.99,8.88v35.1h-5.64v-51.25h5.4Z"/>
        <path class="cls-3" d="m940.53,111.84v13.12h10.61v4.64h-10.61v34.19c0,2.85.51,4.96,1.54,6.35,1.03,1.39,2.74,2.09,5.14,2.09.95,0,2.48-.16,4.59-.47l.24,4.6c-1.48.53-3.51.8-6.06.8-3.88,0-6.71-1.13-8.48-3.39-1.77-2.26-2.65-5.58-2.65-9.97v-34.2h-9.43v-4.64h9.43v-13.12h5.68Z"/>
        <path class="cls-3" d="m968.53,133.63c1.86-3.06,4.25-5.43,7.15-7.11,2.9-1.67,6.08-2.51,9.52-2.51,5.49,0,9.58,1.55,12.27,4.64,2.68,3.1,4.04,7.74,4.07,13.93v33.63h-5.64v-33.68c-.03-4.58-1-7.99-2.91-10.23-1.91-2.24-4.97-3.36-9.16-3.36-3.5,0-6.61,1.1-9.31,3.29-2.7,2.19-4.7,5.15-5.99,8.88v35.1h-5.64v-72.75h5.64v30.17Z"/>
        <path class="cls-3" d="m1035.97,177.16c-4.36,0-8.3-1.07-11.82-3.22-3.52-2.15-6.26-5.14-8.22-8.98-1.96-3.84-2.94-8.14-2.94-12.91v-2.04c0-4.93.95-9.36,2.87-13.31,1.91-3.95,4.57-7.05,7.98-9.31,3.41-2.26,7.1-3.39,11.08-3.39,6.22,0,11.15,2.12,14.8,6.37,3.65,4.25,5.47,10.05,5.47,17.41v3.17h-36.57v1.09c0,5.81,1.67,10.65,5,14.52,3.33,3.87,7.52,5.8,12.58,5.8,3.03,0,5.71-.55,8.03-1.66,2.32-1.1,4.43-2.87,6.32-5.3l3.55,2.7c-4.17,6.03-10.22,9.05-18.14,9.05Zm-1.04-48.31c-4.26,0-7.86,1.56-10.78,4.69-2.92,3.13-4.7,7.33-5.33,12.6h30.74v-.62c-.16-4.93-1.56-8.94-4.22-12.03-2.65-3.09-6.13-4.64-10.42-4.64Z"/>
      </g>
      <g>
        <path id="path1192" class="cls-4" d="m72.52,51.39c-3.42,3.81-5.38,9.68-5.38,17.3v271.07c0,7.62,1.96,13.49,5.51,17.16l.93.81,146.44-151.89v-3.41L73.44,50.58l-.93.81Z"/>
        <path id="path1203" class="cls-5" d="m268.73,256.67l-48.8-52.37h0l48.82-52.53,1.05.68,57.79,34.06c16.55,9.68,16.55,25.61,0,35.42l-57.79,34.06s-1.07.68-1.07.68h0Z"/>
        <path id="path1210" class="cls-1" d="m269.78,256l-49.9-51.77-147.36,152.85c5.38,6,14.44,6.68,24.57.81l172.7-101.89"/>
        <path id="path1223" class="cls-6" d="m269.78,152.47L97.08,50.71c-10.11-6-19.18-5.19-24.57.81l147.35,152.7,49.91-51.76Z"/>
      </g>
    </g>
  </g>
</svg>