<svg xmlns="http://www.w3.org/2000/svg" width="38.123" height="38.471" viewBox="0 0 38.123 38.471">
  <g id="Groupe_98" data-name="Groupe 98" transform="translate(-217.766 -229.784)">
    <path id="Tracé_57" data-name="Tracé 57" d="M11.781,1.5H29.342A10.292,10.292,0,0,1,39.623,11.781V29.342A10.292,10.292,0,0,1,29.342,39.623H11.781A10.292,10.292,0,0,1,1.5,29.342V11.781A10.292,10.292,0,0,1,11.781,1.5ZM29.342,36.623a7.289,7.289,0,0,0,7.281-7.281V11.781A7.289,7.289,0,0,0,29.342,4.5H11.781A7.289,7.289,0,0,0,4.5,11.781V29.342a7.289,7.289,0,0,0,7.281,7.281Z" transform="translate(216.266 228.632)" fill="#fff"/>
    <path id="Tracé_58" data-name="Tracé 58" d="M19.087,10.435a8.569,8.569,0,0,1,1.253.093,8.525,8.525,0,0,1,2.582,16.047,8.562,8.562,0,0,1-3.831.91,8.525,8.525,0,0,1,0-17.05Zm0,14.05a5.525,5.525,0,1,0-3.909-1.618A5.491,5.491,0,0,0,19.092,24.485Z" transform="translate(217.814 230.158)" fill="#fff"/>
    <path id="Tracé_59" data-name="Tracé 59" transform="translate(220.236 229.784)" fill="#fff"/>
  </g>
</svg>
